<svg width="1080" height="3200" xmlns="http://www.w3.org/2000/svg" version="1.1" overflow="scroll">
<rect x="25" y="180" width="800" height="20" fill="orange" stroke-width="1" stroke="orange" />
<rect x="225" y="20" width="10" height="160" fill="orange" stroke-width="1" stroke="orange" />
<rect x="425" y="20" width="10" height="160" fill="orange" stroke-width="1" stroke="orange" />
<rect x="625" y="20" width="10" height="160" fill="orange" stroke-width="1" stroke="orange" />
<rect x="210" y="52" width="40" height="32" fill="rgb(0,0,255)" stroke-width="1" stroke="black" />
<rect x="190" y="84" width="80" height="32" fill="rgb(0,0,192)" stroke-width="1" stroke="black" />
<rect x="170" y="116" width="120" height="32" fill="rgb(0,0,128)" stroke-width="1" stroke="black" />
<rect x="150" y="148" width="160" height="32" fill="rgb(0,0,64)" stroke-width="1" stroke="black" />
<rect x="25" y="380" width="800" height="20" fill="orange" stroke-width="1" stroke="orange" />
<rect x="225" y="220" width="10" height="160" fill="orange" stroke-width="1" stroke="orange" />
<rect x="425" y="220" width="10" height="160" fill="orange" stroke-width="1" stroke="orange" />
<rect x="625" y="220" width="10" height="160" fill="orange" stroke-width="1" stroke="orange" />
<rect x="410" y="348" width="40" height="32" fill="rgb(0,0,255)" stroke-width="1" stroke="black" />
<rect x="190" y="284" width="80" height="32" fill="rgb(0,0,192)" stroke-width="1" stroke="black" />
<rect x="170" y="316" width="120" height="32" fill="rgb(0,0,128)" stroke-width="1" stroke="black" />
<rect x="150" y="348" width="160" height="32" fill="rgb(0,0,64)" stroke-width="1" stroke="black" />
<rect x="25" y="580" width="800" height="20" fill="orange" stroke-width="1" stroke="orange" />
<rect x="225" y="420" width="10" height="160" fill="orange" stroke-width="1" stroke="orange" />
<rect x="425" y="420" width="10" height="160" fill="orange" stroke-width="1" stroke="orange" />
<rect x="625" y="420" width="10" height="160" fill="orange" stroke-width="1" stroke="orange" />
<rect x="410" y="548" width="40" height="32" fill="rgb(0,0,255)" stroke-width="1" stroke="black" />
<rect x="590" y="548" width="80" height="32" fill="rgb(0,0,192)" stroke-width="1" stroke="black" />
<rect x="170" y="516" width="120" height="32" fill="rgb(0,0,128)" stroke-width="1" stroke="black" />
<rect x="150" y="548" width="160" height="32" fill="rgb(0,0,64)" stroke-width="1" stroke="black" />
<rect x="25" y="780" width="800" height="20" fill="orange" stroke-width="1" stroke="orange" />
<rect x="225" y="620" width="10" height="160" fill="orange" stroke-width="1" stroke="orange" />
<rect x="425" y="620" width="10" height="160" fill="orange" stroke-width="1" stroke="orange" />
<rect x="625" y="620" width="10" height="160" fill="orange" stroke-width="1" stroke="orange" />
<rect x="610" y="716" width="40" height="32" fill="rgb(0,0,255)" stroke-width="1" stroke="black" />
<rect x="590" y="748" width="80" height="32" fill="rgb(0,0,192)" stroke-width="1" stroke="black" />
<rect x="170" y="716" width="120" height="32" fill="rgb(0,0,128)" stroke-width="1" stroke="black" />
<rect x="150" y="748" width="160" height="32" fill="rgb(0,0,64)" stroke-width="1" stroke="black" />
<rect x="25" y="980" width="800" height="20" fill="orange" stroke-width="1" stroke="orange" />
<rect x="225" y="820" width="10" height="160" fill="orange" stroke-width="1" stroke="orange" />
<rect x="425" y="820" width="10" height="160" fill="orange" stroke-width="1" stroke="orange" />
<rect x="625" y="820" width="10" height="160" fill="orange" stroke-width="1" stroke="orange" />
<rect x="610" y="916" width="40" height="32" fill="rgb(0,0,255)" stroke-width="1" stroke="black" />
<rect x="590" y="948" width="80" height="32" fill="rgb(0,0,192)" stroke-width="1" stroke="black" />
<rect x="370" y="948" width="120" height="32" fill="rgb(0,0,128)" stroke-width="1" stroke="black" />
<rect x="150" y="948" width="160" height="32" fill="rgb(0,0,64)" stroke-width="1" stroke="black" />
<rect x="25" y="1180" width="800" height="20" fill="orange" stroke-width="1" stroke="orange" />
<rect x="225" y="1020" width="10" height="160" fill="orange" stroke-width="1" stroke="orange" />
<rect x="425" y="1020" width="10" height="160" fill="orange" stroke-width="1" stroke="orange" />
<rect x="625" y="1020" width="10" height="160" fill="orange" stroke-width="1" stroke="orange" />
<rect x="210" y="1116" width="40" height="32" fill="rgb(0,0,255)" stroke-width="1" stroke="black" />
<rect x="590" y="1148" width="80" height="32" fill="rgb(0,0,192)" stroke-width="1" stroke="black" />
<rect x="370" y="1148" width="120" height="32" fill="rgb(0,0,128)" stroke-width="1" stroke="black" />
<rect x="150" y="1148" width="160" height="32" fill="rgb(0,0,64)" stroke-width="1" stroke="black" />
<rect x="25" y="1380" width="800" height="20" fill="orange" stroke-width="1" stroke="orange" />
<rect x="225" y="1220" width="10" height="160" fill="orange" stroke-width="1" stroke="orange" />
<rect x="425" y="1220" width="10" height="160" fill="orange" stroke-width="1" stroke="orange" />
<rect x="625" y="1220" width="10" height="160" fill="orange" stroke-width="1" stroke="orange" />
<rect x="210" y="1316" width="40" height="32" fill="rgb(0,0,255)" stroke-width="1" stroke="black" />
<rect x="390" y="1316" width="80" height="32" fill="rgb(0,0,192)" stroke-width="1" stroke="black" />
<rect x="370" y="1348" width="120" height="32" fill="rgb(0,0,128)" stroke-width="1" stroke="black" />
<rect x="150" y="1348" width="160" height="32" fill="rgb(0,0,64)" stroke-width="1" stroke="black" />
<rect x="25" y="1580" width="800" height="20" fill="orange" stroke-width="1" stroke="orange" />
<rect x="225" y="1420" width="10" height="160" fill="orange" stroke-width="1" stroke="orange" />
<rect x="425" y="1420" width="10" height="160" fill="orange" stroke-width="1" stroke="orange" />
<rect x="625" y="1420" width="10" height="160" fill="orange" stroke-width="1" stroke="orange" />
<rect x="410" y="1484" width="40" height="32" fill="rgb(0,0,255)" stroke-width="1" stroke="black" />
<rect x="390" y="1516" width="80" height="32" fill="rgb(0,0,192)" stroke-width="1" stroke="black" />
<rect x="370" y="1548" width="120" height="32" fill="rgb(0,0,128)" stroke-width="1" stroke="black" />
<rect x="150" y="1548" width="160" height="32" fill="rgb(0,0,64)" stroke-width="1" stroke="black" />
<rect x="25" y="1780" width="800" height="20" fill="orange" stroke-width="1" stroke="orange" />
<rect x="225" y="1620" width="10" height="160" fill="orange" stroke-width="1" stroke="orange" />
<rect x="425" y="1620" width="10" height="160" fill="orange" stroke-width="1" stroke="orange" />
<rect x="625" y="1620" width="10" height="160" fill="orange" stroke-width="1" stroke="orange" />
<rect x="410" y="1684" width="40" height="32" fill="rgb(0,0,255)" stroke-width="1" stroke="black" />
<rect x="390" y="1716" width="80" height="32" fill="rgb(0,0,192)" stroke-width="1" stroke="black" />
<rect x="370" y="1748" width="120" height="32" fill="rgb(0,0,128)" stroke-width="1" stroke="black" />
<rect x="550" y="1748" width="160" height="32" fill="rgb(0,0,64)" stroke-width="1" stroke="black" />
<rect x="25" y="1980" width="800" height="20" fill="orange" stroke-width="1" stroke="orange" />
<rect x="225" y="1820" width="10" height="160" fill="orange" stroke-width="1" stroke="orange" />
<rect x="425" y="1820" width="10" height="160" fill="orange" stroke-width="1" stroke="orange" />
<rect x="625" y="1820" width="10" height="160" fill="orange" stroke-width="1" stroke="orange" />
<rect x="610" y="1916" width="40" height="32" fill="rgb(0,0,255)" stroke-width="1" stroke="black" />
<rect x="390" y="1916" width="80" height="32" fill="rgb(0,0,192)" stroke-width="1" stroke="black" />
<rect x="370" y="1948" width="120" height="32" fill="rgb(0,0,128)" stroke-width="1" stroke="black" />
<rect x="550" y="1948" width="160" height="32" fill="rgb(0,0,64)" stroke-width="1" stroke="black" />
<rect x="25" y="2180" width="800" height="20" fill="orange" stroke-width="1" stroke="orange" />
<rect x="225" y="2020" width="10" height="160" fill="orange" stroke-width="1" stroke="orange" />
<rect x="425" y="2020" width="10" height="160" fill="orange" stroke-width="1" stroke="orange" />
<rect x="625" y="2020" width="10" height="160" fill="orange" stroke-width="1" stroke="orange" />
<rect x="610" y="2116" width="40" height="32" fill="rgb(0,0,255)" stroke-width="1" stroke="black" />
<rect x="190" y="2148" width="80" height="32" fill="rgb(0,0,192)" stroke-width="1" stroke="black" />
<rect x="370" y="2148" width="120" height="32" fill="rgb(0,0,128)" stroke-width="1" stroke="black" />
<rect x="550" y="2148" width="160" height="32" fill="rgb(0,0,64)" stroke-width="1" stroke="black" />
<rect x="25" y="2380" width="800" height="20" fill="orange" stroke-width="1" stroke="orange" />
<rect x="225" y="2220" width="10" height="160" fill="orange" stroke-width="1" stroke="orange" />
<rect x="425" y="2220" width="10" height="160" fill="orange" stroke-width="1" stroke="orange" />
<rect x="625" y="2220" width="10" height="160" fill="orange" stroke-width="1" stroke="orange" />
<rect x="210" y="2316" width="40" height="32" fill="rgb(0,0,255)" stroke-width="1" stroke="black" />
<rect x="190" y="2348" width="80" height="32" fill="rgb(0,0,192)" stroke-width="1" stroke="black" />
<rect x="370" y="2348" width="120" height="32" fill="rgb(0,0,128)" stroke-width="1" stroke="black" />
<rect x="550" y="2348" width="160" height="32" fill="rgb(0,0,64)" stroke-width="1" stroke="black" />
<rect x="25" y="2580" width="800" height="20" fill="orange" stroke-width="1" stroke="orange" />
<rect x="225" y="2420" width="10" height="160" fill="orange" stroke-width="1" stroke="orange" />
<rect x="425" y="2420" width="10" height="160" fill="orange" stroke-width="1" stroke="orange" />
<rect x="625" y="2420" width="10" height="160" fill="orange" stroke-width="1" stroke="orange" />
<rect x="210" y="2516" width="40" height="32" fill="rgb(0,0,255)" stroke-width="1" stroke="black" />
<rect x="190" y="2548" width="80" height="32" fill="rgb(0,0,192)" stroke-width="1" stroke="black" />
<rect x="570" y="2516" width="120" height="32" fill="rgb(0,0,128)" stroke-width="1" stroke="black" />
<rect x="550" y="2548" width="160" height="32" fill="rgb(0,0,64)" stroke-width="1" stroke="black" />
<rect x="25" y="2780" width="800" height="20" fill="orange" stroke-width="1" stroke="orange" />
<rect x="225" y="2620" width="10" height="160" fill="orange" stroke-width="1" stroke="orange" />
<rect x="425" y="2620" width="10" height="160" fill="orange" stroke-width="1" stroke="orange" />
<rect x="625" y="2620" width="10" height="160" fill="orange" stroke-width="1" stroke="orange" />
<rect x="410" y="2748" width="40" height="32" fill="rgb(0,0,255)" stroke-width="1" stroke="black" />
<rect x="190" y="2748" width="80" height="32" fill="rgb(0,0,192)" stroke-width="1" stroke="black" />
<rect x="570" y="2716" width="120" height="32" fill="rgb(0,0,128)" stroke-width="1" stroke="black" />
<rect x="550" y="2748" width="160" height="32" fill="rgb(0,0,64)" stroke-width="1" stroke="black" />
<rect x="25" y="2980" width="800" height="20" fill="orange" stroke-width="1" stroke="orange" />
<rect x="225" y="2820" width="10" height="160" fill="orange" stroke-width="1" stroke="orange" />
<rect x="425" y="2820" width="10" height="160" fill="orange" stroke-width="1" stroke="orange" />
<rect x="625" y="2820" width="10" height="160" fill="orange" stroke-width="1" stroke="orange" />
<rect x="410" y="2948" width="40" height="32" fill="rgb(0,0,255)" stroke-width="1" stroke="black" />
<rect x="590" y="2884" width="80" height="32" fill="rgb(0,0,192)" stroke-width="1" stroke="black" />
<rect x="570" y="2916" width="120" height="32" fill="rgb(0,0,128)" stroke-width="1" stroke="black" />
<rect x="550" y="2948" width="160" height="32" fill="rgb(0,0,64)" stroke-width="1" stroke="black" />
<rect x="25" y="3180" width="800" height="20" fill="orange" stroke-width="1" stroke="orange" />
<rect x="225" y="3020" width="10" height="160" fill="orange" stroke-width="1" stroke="orange" />
<rect x="425" y="3020" width="10" height="160" fill="orange" stroke-width="1" stroke="orange" />
<rect x="625" y="3020" width="10" height="160" fill="orange" stroke-width="1" stroke="orange" />
<rect x="610" y="3052" width="40" height="32" fill="rgb(0,0,255)" stroke-width="1" stroke="black" />
<rect x="590" y="3084" width="80" height="32" fill="rgb(0,0,192)" stroke-width="1" stroke="black" />
<rect x="570" y="3116" width="120" height="32" fill="rgb(0,0,128)" stroke-width="1" stroke="black" />
<rect x="550" y="3148" width="160" height="32" fill="rgb(0,0,64)" stroke-width="1" stroke="black" />
</svg>